# xmcd
#
# Track frame offsets:
#	150
#	11905
#	27475
#	42385
#	63465
#	80587
#	99095
#	114587
#	131037
#	145087
#	163552
#	180842
#	197425
#	209720
#	227030
#	240135
#	253675
#
# Disc length: 3611 seconds
#
# Revision: 1
# Processed by: cddbd v1.4PL0 Copyright (c) Steve Scherf et al.
# Submitted via: audiograbber 1.81.02
#
DISCID=e10e1911
DTITLE=CONSUL CRAYFISH and the Blackouts - Biker Music--Consul Crayfish
DYEAR=1900
DGENRE=
TTITLE0=I WANT MORE (DULAS)
TTITLE1=WHAT YOU'RE GIVING AWAY (PURWIN/DULAS)
TTITLE2=THE WAY I FEEL FOR YOU (DULAS)
TTITLE3=GAMBLING MAN (PURWIN)
TTITLE4=MY CROMOSOMES (DULAS)
TTITLE5=HARD - EVIL - UNFAIR (DULAS)
TTITLE6=COFFEE BREAK LOVER (DULAS)
TTITLE7=OUT OF THE RAIN (DULAS)
TTITLE8=E-GLIDE (DULAS)
TTITLE9=BIG MAMA (PURWIN/DULAS)
TTITLE10=MARY (DULAS)
TTITLE11=DIRTY BITCH (PURWIN/DULAS)
TTITLE12=MOUNTAINS - BONES - HEARTBEATS (PURWIN)
TTITLE13=WHEN YOU'RE GONE (DULAS)
TTITLE14=PLEDGE (DULAS)
TTITLE15=MANIAC BOOGIE (PURWIN)
TTITLE16=STRANDED ALIEN (DULAS)
EXTD=
EXTT0=
EXTT1=
EXTT2=
EXTT3=
EXTT4=
EXTT5=
EXTT6=
EXTT7=
EXTT8=
EXTT9=
EXTT10=
EXTT11=
EXTT12=
EXTT13=
EXTT14=
EXTT15=
EXTT16=
PLAYORDER=
